<svg width="12" height="12" viewBox="0 0 12 12" fill="none" xmlns="http://www.w3.org/2000/svg">
<g clip-path="url(#clip0_40_312)">
<path fill-rule="evenodd" clip-rule="evenodd" d="M0.0499371 1.92987C0.0499371 1.92987 0.119937 1.42987 0.549937 0.849865C0.989937 0.349865 1.34994 0.129865 1.34994 0.129865C1.34994 0.129865 1.56994 -0.160135 1.92994 0.129865C2.35994 0.419865 4.01994 1.92987 4.01994 1.92987C4.01994 1.92987 4.51994 2.42987 4.22994 2.86987C4.01994 3.29987 3.14994 4.08987 3.14994 4.08987C3.14994 4.08987 3.07994 4.30987 3.36994 4.95987C3.79994 5.81987 6.16994 8.19987 7.11994 8.62987C7.68994 8.98987 7.90994 8.84987 7.90994 8.84987C7.90994 8.84987 8.70994 8.04987 9.12994 7.76987C9.56994 7.46987 10.1399 7.97987 10.1399 7.97987C10.1399 7.97987 11.5799 9.70987 11.8699 10.0799C12.1599 10.5099 11.8699 10.7199 11.8699 10.7199C11.8699 10.7199 11.6599 11.0099 11.1499 11.5199C10.5699 11.9499 10.0699 11.9499 10.0699 11.9499C6.16994 12.6699 -0.670063 5.81987 0.0499371 1.92987Z" fill="white"/>
</g>
<defs>
<clipPath id="clip0_40_312">
<rect width="12" height="12" fill="white"/>
</clipPath>
</defs>
</svg>
