<svg width="29" height="27" viewBox="0 0 29 27" fill="none" xmlns="http://www.w3.org/2000/svg">
<g clip-path="url(#clip0_3_772)">
<path d="M14.1091 0C17.812 0 21.3633 1.42232 23.9817 3.95406C26.6001 6.4858 28.0711 9.91958 28.0711 13.5C28.0711 17.0804 26.6001 20.5142 23.9817 23.0459C21.3633 25.5777 17.812 27 14.1091 27C10.4061 27 6.85477 25.5777 4.23637 23.0459C1.61797 20.5142 0.146973 17.0804 0.146973 13.5C0.146973 9.91958 1.61797 6.4858 4.23637 3.95406C6.85477 1.42232 10.4061 0 14.1091 0ZM12.0933 21.0094H15.3046V13.5H17.4425L17.7305 10.9097H15.3046V9.61875C15.3046 8.94375 15.3744 8.58938 16.3779 8.58938H17.713V5.99062H15.5751C13.0008 5.99062 12.0933 7.24781 12.0933 9.35719V10.9097H10.4876V13.5H12.0933V21.0094Z" fill="white"/>
</g>
<defs>
<clipPath id="clip0_3_772">
<rect width="27.9242" height="27" fill="white" transform="translate(0.146973)"/>
</clipPath>
</defs>
</svg>
