<svg width="28" height="27" viewBox="0 0 28 27" fill="none" xmlns="http://www.w3.org/2000/svg">
<g clip-path="url(#clip0_3_780)">
<path fill-rule="evenodd" clip-rule="evenodd" d="M14.038 27C17.741 27 21.2923 25.5777 23.9107 23.0459C26.5291 20.5142 28.0001 17.0804 28.0001 13.5C28.0001 9.91958 26.5291 6.4858 23.9107 3.95406C21.2923 1.42232 17.741 0 14.038 0C10.335 0 6.78373 1.42232 4.16533 3.95406C1.54693 6.4858 0.0759277 9.91958 0.0759277 13.5C0.0759277 17.0804 1.54693 20.5142 4.16533 23.0459C6.78373 25.5777 10.335 27 14.038 27ZM18.5321 15.0356H14.7797C14.7114 15.0356 14.6437 15.0225 14.5807 14.9969C14.5176 14.9714 14.4605 14.934 14.4126 14.8868C14.3646 14.8397 14.3269 14.7838 14.3016 14.7225C14.2762 14.6611 14.2637 14.5955 14.2649 14.5294V12.7153C14.2649 12.4369 14.4918 12.2091 14.7885 12.2091H21.7172L21.7084 13.9219C21.6436 15.8911 20.7724 17.7548 19.2865 19.1029C17.8006 20.4511 15.8216 21.1733 13.785 21.1106C11.7483 21.048 9.82084 20.2056 8.42654 18.7688C7.03224 17.3321 6.28534 15.4186 6.35014 13.4494C6.38002 11.4659 7.22309 9.57502 8.69409 8.19225C10.1651 6.80948 12.1437 6.04795 14.1951 6.075C16.176 6.11719 17.9736 6.87656 19.3174 8.10844C19.5356 8.3025 19.5356 8.64 19.3174 8.83406L17.9387 10.0828C17.8427 10.1658 17.7184 10.2117 17.5896 10.2117C17.4608 10.2117 17.3366 10.1658 17.2406 10.0828C16.4819 9.41558 15.5212 9.00235 14.5006 8.90432C13.4801 8.80629 12.454 9.02868 11.5744 9.53854C10.6948 10.0484 10.0084 10.8186 9.61694 11.7352C9.22544 12.6517 9.14965 13.6658 9.40078 14.6272C9.65191 15.5886 10.2166 16.4463 11.0112 17.0731C11.8059 17.7 12.7882 18.0627 13.8127 18.1076C14.8372 18.1525 15.8494 17.8771 16.6994 17.3223C17.5494 16.7675 18.192 15.9627 18.5321 15.0272V15.0356Z" fill="white"/>
</g>
<defs>
<clipPath id="clip0_3_780">
<rect width="27.9242" height="27" fill="white" transform="translate(0.0759277)"/>
</clipPath>
</defs>
</svg>
