<svg width="29" height="27" viewBox="0 0 29 27" fill="none" xmlns="http://www.w3.org/2000/svg">
<g clip-path="url(#clip0_3_778)">
<path d="M14.8058 0C18.5088 0 22.0601 1.42232 24.6785 3.95406C27.2969 6.4858 28.7679 9.91958 28.7679 13.5C28.7679 17.0804 27.2969 20.5142 24.6785 23.0459C22.0601 25.5777 18.5088 27 14.8058 27C11.1029 27 7.55155 25.5777 4.93315 23.0459C2.31475 20.5142 0.84375 17.0804 0.84375 13.5C0.84375 9.91958 2.31475 6.4858 4.93315 3.95406C7.55155 1.42232 11.1029 0 14.8058 0ZM22.0487 19.3556V14.175C22.0487 11.4075 20.5128 10.1166 18.4709 10.1166C17.9088 10.0952 17.3513 10.2231 16.8591 10.4864C16.3668 10.7497 15.9585 11.1383 15.6785 11.61V10.3275H12.5632C12.6068 11.1712 12.5632 19.3556 12.5632 19.3556H15.6785V14.31C15.6785 14.04 15.7046 13.77 15.7832 13.5844C16.0101 13.0444 16.5162 12.4875 17.3714 12.4875C18.5058 12.4875 18.9421 13.3144 18.9421 14.5294V19.3556H22.0487ZM9.28209 9.09562C10.3729 9.09562 11.0448 8.39531 11.0448 7.53469C11.0273 6.64875 10.3729 5.97375 9.29954 5.97375C8.25238 5.97375 7.55428 6.64875 7.55428 7.53469C7.55428 8.40375 8.2262 9.09562 9.26463 9.09562H9.29081H9.28209ZM10.8354 19.3556V10.3275H7.74626V19.3556H10.8441H10.8354Z" fill="white"/>
</g>
<defs>
<clipPath id="clip0_3_778">
<rect width="27.9242" height="27" fill="white" transform="translate(0.84375)"/>
</clipPath>
</defs>
</svg>
