<svg width="29" height="27" viewBox="0 0 29 27" fill="none" xmlns="http://www.w3.org/2000/svg">
<g clip-path="url(#clip0_3_776)">
<path fill-rule="evenodd" clip-rule="evenodd" d="M14.5735 27C18.2765 27 21.8278 25.5777 24.4462 23.0459C27.0646 20.5142 28.5356 17.0804 28.5356 13.5C28.5356 9.91958 27.0646 6.4858 24.4462 3.95406C21.8278 1.42232 18.2765 0 14.5735 0C10.8706 0 7.31925 1.42232 4.70085 3.95406C2.08245 6.4858 0.61145 9.91958 0.61145 13.5C0.61145 17.0804 2.08245 20.5142 4.70085 23.0459C7.31925 25.5777 10.8706 27 14.5735 27ZM10.9347 18.8578L20.6209 14.0231C20.9176 13.8713 20.9263 13.4409 20.6383 13.2891L10.9521 8.14219C10.6903 8.00719 10.3762 8.20125 10.3762 8.505V18.495C10.3762 18.7903 10.6816 18.9928 10.9347 18.8578Z" fill="white"/>
</g>
<defs>
<clipPath id="clip0_3_776">
<rect width="27.9242" height="27" fill="white" transform="translate(0.61145)"/>
</clipPath>
</defs>
</svg>
