<svg width="29" height="27" viewBox="0 0 29 27" fill="none" xmlns="http://www.w3.org/2000/svg">
<g clip-path="url(#clip0_3_774)">
<path d="M14.3412 0C18.0442 0 21.5955 1.42232 24.2139 3.95406C26.8323 6.4858 28.3033 9.91958 28.3033 13.5C28.3033 17.0804 26.8323 20.5142 24.2139 23.0459C21.5955 25.5777 18.0442 27 14.3412 27C10.6383 27 7.08695 25.5777 4.46855 23.0459C1.85015 20.5142 0.37915 17.0804 0.37915 13.5C0.37915 9.91958 1.85015 6.4858 4.46855 3.95406C7.08695 1.42232 10.6383 0 14.3412 0ZM16.2872 7.50094C15.6215 7.71958 15.0485 8.14341 14.656 8.70736C14.2634 9.27131 14.0732 9.94422 14.1144 10.6228L14.1493 11.1544L13.5995 11.0869C11.575 10.8338 9.81228 9.99 8.31136 8.5725L7.57835 7.86375L7.3951 8.38687C7.19365 8.93088 7.15141 9.51809 7.27305 10.0838C7.39469 10.6495 7.67548 11.1718 8.08448 11.5931C8.52079 12.0572 8.4248 12.1247 7.65689 11.8462C7.3951 11.7619 7.15949 11.6944 7.13331 11.7281C7.0635 11.8125 7.32529 12.7913 7.53472 13.1878C7.82269 13.7278 8.40735 14.2594 9.06182 14.5716L9.60285 14.8247L8.95711 14.8331C8.33754 14.8331 8.31136 14.8416 8.38117 15.0778C8.59933 15.7781 9.48069 16.5291 10.458 16.8497L11.1474 17.0859L10.5453 17.4234C9.65521 17.9297 8.61678 18.2081 7.56962 18.2334C7.07223 18.2419 6.66209 18.2841 6.66209 18.3178C6.66209 18.4275 8.01467 19.035 8.80003 19.2712C11.1649 19.98 13.9747 19.6762 16.0865 18.4697C17.7249 17.4512 19.0104 15.9819 19.7777 14.2509C20.1617 13.3819 20.5369 11.7703 20.5369 11.0025C20.5369 10.4963 20.5718 10.4372 21.1914 9.83813C21.5579 9.50062 21.8982 9.1125 21.968 9.01125C22.0815 8.80031 22.064 8.80031 21.5055 8.98594C20.5544 9.30656 20.4235 9.26437 20.8947 8.775C21.2437 8.4375 21.6452 7.80469 21.6452 7.61906C21.6452 7.58531 21.4794 7.64437 21.2961 7.73719C21.0954 7.84688 20.6504 8.00719 20.31 8.10844L19.7166 8.29406L19.1669 7.93125C18.8734 7.73564 18.5571 7.57421 18.2244 7.45031C17.5851 7.30445 16.9175 7.3219 16.2872 7.50094Z" fill="white"/>
</g>
<defs>
<clipPath id="clip0_3_774">
<rect width="27.9242" height="27" fill="white" transform="translate(0.37915)"/>
</clipPath>
</defs>
</svg>
